<?xml version="1.0" standalone="no"?>
<!DOCTYPE svg PUBLIC "-//W3C//DTD SVG 20010904//EN"
 "http://www.w3.org/TR/2001/REC-SVG-20010904/DTD/svg10.dtd">
<svg version="1.0" xmlns="http://www.w3.org/2000/svg"
 width="1536.000000pt" height="1536.000000pt" viewBox="0 0 1536.000000 1536.000000"
 preserveAspectRatio="xMidYMid meet">

<g transform="translate(0.000000,1536.000000) scale(0.100000,-0.100000)"
fill="#000000" stroke="none">
<path d="M0 7680 l0 -7680 7680 0 7680 0 0 7680 0 7680 -7680 0 -7680 0 0
-7680z m4631 2710 c27 -15 52 -68 45 -96 -20 -77 -123 -88 -160 -16 -34 67 48
147 115 112z m1135 -84 c494 -87 849 -496 871 -1002 5 -114 4 -125 -19 -175
-33 -73 -66 -109 -130 -144 -46 -26 -63 -30 -128 -30 -64 1 -83 5 -129 30 -59
32 -112 91 -137 150 -8 21 -20 79 -25 129 -18 186 -54 272 -153 363 -107 99
-222 139 -380 131 -126 -7 -203 -39 -296 -125 -95 -88 -141 -180 -148 -292 -9
-164 36 -290 137 -383 106 -97 170 -115 471 -137 273 -20 465 -113 663 -320
121 -127 175 -219 243 -415 58 -165 65 -394 18 -575 -73 -283 -285 -541 -549
-671 -126 -62 -204 -87 -330 -106 -124 -20 -315 -13 -430 15 -299 73 -567 289
-699 565 -80 167 -107 287 -110 476 -1 126 1 139 25 190 36 77 71 115 136 146
118 58 252 28 347 -77 61 -68 76 -118 76 -255 0 -138 20 -210 85 -305 93 -136
230 -209 392 -209 148 0 276 51 373 149 197 199 200 493 5 688 -105 105 -233
152 -415 153 -81 0 -235 25 -309 49 -147 48 -337 173 -435 285 -106 121 -181
261 -228 421 -20 71 -23 101 -22 265 0 172 2 191 27 273 55 179 130 308 255
439 150 157 366 271 582 307 87 14 277 12 366 -3z m5184 -22 c68 -20 160 -108
178 -170 45 -154 -25 -306 -167 -361 -40 -16 -81 -18 -306 -19 -143 -1 -297
-2 -342 -3 l-83 -1 -2 -1412 -3 -1413 -28 -47 c-95 -163 -327 -182 -450 -37
-72 83 -67 -20 -67 1520 l0 1387 -22 6 c-41 11 -831 7 -893 -5 -130 -24 -252
-110 -294 -209 l-21 -48 44 -129 c25 -70 65 -184 91 -253 26 -69 73 -199 105
-290 32 -91 86 -241 120 -335 119 -327 169 -469 471 -1330 46 -131 49 -187 15
-260 -28 -60 -74 -107 -135 -138 -64 -31 -188 -31 -246 0 -93 49 -138 123
-192 318 -13 50 -30 108 -37 130 l-13 40 -447 3 -448 2 5 -22 c40 -165 -10
-350 -134 -490 -55 -63 -144 -119 -229 -144 -76 -22 -231 -22 -300 1 -82 27
-119 48 -181 104 -141 126 -213 331 -175 495 17 70 69 172 116 228 40 46 150
130 187 142 11 4 30 37 52 93 18 49 48 126 66 173 19 47 50 128 70 180 80 206
166 426 175 445 9 20 142 357 313 790 111 281 198 487 234 553 128 234 380
428 643 497 l95 24 1091 1 c968 0 1096 -2 1144 -16z m-3742 -23 c87 -45 152
-149 152 -243 0 -154 -89 -264 -240 -297 -78 -17 -179 18 -239 81 -76 81 -98
217 -52 312 41 84 87 127 176 163 41 17 157 8 203 -16z m1859 -921 c83 -29 70
-164 -18 -181 -61 -13 -109 27 -109 91 0 41 14 66 48 84 33 18 41 19 79 6z
m1838 -344 c9 -49 27 -112 41 -142 31 -65 112 -141 160 -150 43 -8 43 -17 -1
-34 -49 -19 -141 -118 -170 -182 -13 -29 -27 -83 -30 -121 -11 -106 -24 -102
-55 17 -25 98 -42 129 -109 199 -59 62 -96 87 -131 87 -35 0 -22 16 27 35 103
40 187 152 219 294 27 118 28 118 49 -3z m-3874 -135 c89 -90 -45 -238 -144
-158 -46 37 -49 125 -7 167 15 15 34 20 71 20 43 0 55 -5 80 -29z m2209 -25
c0 -3 -4 -8 -10 -11 -5 -3 -10 -1 -10 4 0 6 5 11 10 11 6 0 10 -2 10 -4z
m1655 -1116 c59 -22 83 -90 49 -138 -57 -82 -194 -55 -194 38 0 77 73 127 145
100z m13 -664 c154 -80 146 -310 -13 -385 -52 -24 -75 -26 -129 -7 -82 28
-145 107 -150 188 -5 75 53 175 119 204 40 18 139 18 173 0z m-2650 -349 c51
-24 66 -99 32 -155 -67 -110 -241 -31 -200 92 24 73 94 99 168 63z m-3373
-193 c31 -33 31 -52 2 -95 -27 -40 -74 -50 -113 -24 -55 36 -14 145 56 145 21
0 39 -9 55 -26z m3920 -389 c14 -13 25 -28 25 -33 0 -17 -28 -98 -110 -317
-45 -121 -113 -305 -151 -410 -73 -202 -98 -242 -142 -229 -12 3 -28 11 -35
18 -11 10 -116 285 -192 501 -32 92 -67 183 -116 306 -19 48 -34 98 -34 112 0
58 96 89 137 45 31 -34 42 -60 148 -345 54 -145 101 -263 105 -263 10 0 34 60
129 332 87 247 102 282 128 297 33 19 82 13 108 -14z m-3461 5 c14 -5 30 -18
36 -29 14 -27 23 -854 10 -896 -10 -31 -54 -65 -85 -65 -9 0 -30 13 -46 29
l-29 29 0 444 0 445 23 20 c20 19 41 30 59 32 4 1 18 -3 32 -9z m722 -11 c32
-12 73 -36 93 -54 29 -27 35 -39 34 -69 -2 -78 -57 -95 -152 -49 -180 88 -335
-40 -348 -288 -6 -104 8 -169 53 -240 47 -75 137 -126 201 -113 66 13 92 61
93 170 0 65 -13 78 -75 68 -40 -5 -49 -3 -71 17 -28 26 -30 48 -9 89 21 41 68
53 182 48 132 -6 133 -7 133 -187 -1 -75 -5 -156 -9 -180 -13 -66 -57 -121
-126 -156 -52 -26 -69 -30 -145 -30 -76 0 -93 3 -151 32 -201 99 -294 366
-223 640 24 93 53 144 123 214 84 84 141 108 258 108 60 1 97 -5 139 -20z
m434 -4 c21 -23 23 -34 29 -202 l6 -178 129 -3 c89 -2 133 1 143 9 11 10 14
40 13 148 -2 207 -2 209 20 231 28 28 100 28 126 -1 18 -20 19 -43 19 -468 0
-403 -2 -449 -17 -473 -9 -14 -28 -28 -42 -30 -28 -6 -79 13 -92 34 -5 7 -11
96 -14 198 l-5 185 -141 3 -141 3 -5 -197 c-4 -194 -5 -196 -29 -215 -36 -28
-94 -25 -125 6 l-26 26 4 449 3 448 24 26 c33 35 88 36 121 1z m1228 -2 c43
-27 48 -85 10 -120 -16 -14 -43 -19 -126 -23 l-107 -5 0 -389 -1 -389 -29 -24
c-23 -20 -36 -24 -64 -19 -68 11 -65 -5 -71 429 l-5 392 -95 5 c-127 7 -164
34 -146 105 11 45 35 50 296 55 270 6 304 4 338 -17z m1343 8 l24 -19 0 -455
c0 -433 -1 -456 -19 -476 -14 -15 -31 -21 -62 -21 -36 0 -47 5 -61 27 -17 25
-18 63 -18 471 l0 444 28 24 c34 29 76 31 108 5z m754 -2 c9 -9 19 -34 21 -55
4 -32 1 -44 -21 -66 l-26 -28 -183 0 c-213 0 -195 12 -192 -127 l1 -88 164 -6
c163 -6 165 -6 188 -33 13 -15 23 -34 23 -42 0 -24 -29 -73 -49 -84 -11 -5
-86 -10 -170 -10 l-149 0 -7 -31 c-4 -17 -4 -76 0 -130 l7 -99 34 -1 c19 -1
39 -3 44 -4 6 -1 75 -3 155 -4 141 -1 147 -2 170 -26 32 -31 34 -86 5 -115
-19 -19 -33 -20 -274 -20 l-253 0 -26 26 c-16 16 -28 42 -33 70 -3 24 -4 216
-2 427 5 351 7 387 24 415 10 18 30 36 44 41 14 6 127 9 257 8 199 -2 235 -4
248 -18z m254 -8 c17 -19 42 -73 68 -152 76 -227 119 -344 128 -347 9 -3 87
206 135 367 37 120 73 171 110 151 27 -14 52 -66 85 -175 47 -157 116 -360
124 -368 5 -5 47 108 95 250 48 142 90 263 94 269 24 36 87 43 125 14 43 -34
42 -65 -2 -186 -33 -87 -173 -512 -235 -708 -15 -49 -55 -81 -89 -73 -25 7
-48 48 -66 122 -14 54 -148 455 -154 461 -5 6 -76 -204 -133 -396 -48 -164
-57 -180 -94 -180 -20 0 -34 8 -44 23 -8 12 -53 141 -101 287 -48 146 -111
339 -141 429 -49 147 -54 167 -43 193 23 55 95 65 138 19z m-5141 -12 c77 -38
107 -78 107 -140 0 -60 -24 -89 -73 -89 -30 0 -43 8 -82 50 -41 44 -53 51 -88
53 -47 1 -89 -24 -110 -67 -12 -23 -11 -32 8 -72 24 -49 56 -71 180 -125 96
-42 149 -85 180 -145 21 -40 25 -62 25 -133 0 -76 -3 -92 -27 -133 -78 -131
-230 -189 -376 -142 -99 32 -182 129 -182 213 0 87 76 122 129 60 14 -18 45
-51 67 -75 39 -42 44 -44 96 -44 62 0 97 21 123 70 40 77 -8 147 -133 195
-178 67 -252 151 -260 296 -4 70 -2 82 23 128 51 92 122 129 251 130 71 1 88
-3 142 -30z"/>
<path d="M8096 8627 c-21 -56 -65 -172 -98 -257 -33 -85 -79 -207 -103 -270
-24 -63 -61 -161 -83 -217 l-40 -103 349 0 c245 0 349 3 349 11 0 6 -48 146
-106 312 -58 166 -131 375 -162 465 -31 89 -59 162 -62 162 -3 0 -22 -46 -44
-103z"/>
<path d="M7345 7570 c17 -4 41 -8 55 -8 l25 0 -25 8 c-14 4 -38 8 -55 8 l-30
0 30 -8z"/>
<path d="M7420 7550 c-11 -7 -7 -10 17 -10 17 0 40 -3 50 -6 14 -4 15 -4 3 4
-27 17 -55 22 -70 12z"/>
<path d="M7517 7519 c7 -7 15 -10 18 -7 3 3 -2 9 -12 12 -14 6 -15 5 -6 -5z"/>
<path d="M7599 7463 c30 -27 42 -44 36 -53 -5 -8 -4 -11 3 -6 6 3 14 1 19 -6
11 -18 53 -53 53 -44 0 12 -92 106 -125 128 -18 12 -13 5 14 -19z"/>
<path d="M6900 6740 c0 -5 5 -10 11 -10 5 0 7 5 4 10 -3 6 -8 10 -11 10 -2 0
-4 -4 -4 -10z"/>
<path d="M6935 6700 c3 -5 8 -10 11 -10 2 0 4 5 4 10 0 6 -5 10 -11 10 -5 0
-7 -4 -4 -10z"/>
</g>
</svg>
